<svg xmlns="http://www.w3.org/2000/svg" viewBox="0 0 64 64" width="64" height="64" aria-labelledby="title" role="img">
  <title id="title">美食图标（碗和筷子）</title>
  <!-- steam -->
  <path d="M20 12c1.5-2 3-3 4-3 1.2 0 2 1 1.8 2.5-.4 2.8-3.2 4.5-4.2 5" fill="none" stroke="currentColor" stroke-linecap="round" stroke-linejoin="round" stroke-width="1.8"/>
  <path d="M30 10c1-1.6 2-2.6 3-2.6 1 0 1.4.9 1.1 2.2-.6 2.9-3.1 4.6-4 5" fill="none" stroke="currentColor" stroke-linecap="round" stroke-linejoin="round" stroke-width="1.8"/>
  <!-- chopsticks -->
  <path d="M10 18l34-8" fill="none" stroke="currentColor" stroke-linecap="round" stroke-width="2.4"/>
  <path d="M14 24l30-8" fill="none" stroke="currentColor" stroke-linecap="round" stroke-width="2.4"/>
  <!-- bowl -->
  <path d="M8 36c0 9 11 16 24 16s24-7 24-16H8z" fill="none" stroke="currentColor" stroke-linecap="round" stroke-linejoin="round" stroke-width="2.2"/>
  <!-- bowl rim -->
  <path d="M12 32c6-4 18-6 20-6s14 2 20 6" fill="none" stroke="currentColor" stroke-linecap="round" stroke-linejoin="round" stroke-width="2.2"/>
</svg>
